<svg id="Слой_2" data-name="Слой 2" xmlns="http://www.w3.org/2000/svg" viewBox="0 0 300.22 346.08"><defs><style>.cls-1{fill:#fff;}.cls-2{fill:none;stroke:#000;stroke-miterlimit:10;stroke-width:8px;}</style></defs><path class="cls-1" d="M282.37,90.56a103.05,103.05,0,0,0-15,2.44,117.38,117.38,0,0,0-20.54,6.35,5.67,5.67,0,0,0-.92.25,4.37,4.37,0,0,0-1.11.59q-4.49,1.94-8.79,4.25a10.29,10.29,0,0,0-2.87,1.57l-.34.19a144.77,144.77,0,0,0-34.48,28.43A126.71,126.71,0,0,0,174.8,172a128.66,128.66,0,0,0-9,42.33,2.67,2.67,0,0,0-.14.83V347.82a2.29,2.29,0,0,0,.79,1.81,2.22,2.22,0,0,0,1.49.76,2.4,2.4,0,0,0,1.14.27h23.71a2.59,2.59,0,0,0,.41,0,2.85,2.85,0,0,0,.41,0,2.61,2.61,0,0,0,1.09-.23A2.41,2.41,0,0,0,196.4,348a2.81,2.81,0,0,0,.06-.59q.18-26.1.19-52.2t-.07-52.1q0-9-.1-18a219.39,219.39,0,0,1,1.71-23.76,76.74,76.74,0,0,1,3.36-14.92,97.06,97.06,0,0,1,7-14.3c5.72-10.17,12.32-19.79,21.36-27.29a96.45,96.45,0,0,1,29.47-16.68c.56-.2,1.13-.38,1.7-.57q-.07,8.59-.11,17.18c-6.87,2.76-13.1,7.36-18.7,12A82.55,82.55,0,0,0,219,188.55c-3.9,9.45-5.44,19.66-6,29.83a2.31,2.31,0,0,0-.52,1.53V341.53a2.51,2.51,0,0,0,.26,1.13,2.64,2.64,0,0,0,.69,1.42l4.9,4.9a2.61,2.61,0,0,0,1.77.73l.15,0a2.3,2.3,0,0,0,.45.05h.82a2.57,2.57,0,0,0,1.17,0,2.55,2.55,0,0,0,1,.21H237.9a2.48,2.48,0,0,0,.73-.12l.3,0a2.5,2.5,0,0,0,2.5-2.5v-7.22a2.18,2.18,0,0,0-.09-.63q.41-43.86.17-87.69-.06-12.75-.18-25.5c0-7.46.28-15.22,2.14-22.46A39.44,39.44,0,0,1,248.39,193a40.5,40.5,0,0,1,12.41-12.45c0,1.05,0,2.1,0,3.15q-.06,28.53,0,57.08,0,16.08.1,32.18a2.32,2.32,0,0,0,.58,1.59l0,.08a2.53,2.53,0,0,0,.69,1.13,2.29,2.29,0,0,0,2,1h19.49a2.34,2.34,0,0,0,1.52-.51,2.51,2.51,0,0,0,.78-.51v-.05l3.41-3.37a3.55,3.55,0,0,0,.88-2v-4a2.31,2.31,0,0,0-.1-.64,2.18,2.18,0,0,0,.05-.63,2.42,2.42,0,0,0,.16-.88V95.08C291.16,90.5,285.56,90.34,282.37,90.56ZM176.24,260.06l-.13,0c0-.63.09-1.26.13-1.89Zm95-103.79v0h0Zm11.45,108.06v.11l-.14,0,.07-.19.07,0Zm-32.59-158-.28-.06c.19-.1.38-.21.57-.3ZM217.49,259.64v.15h0v-.15Zm16.14,84.19c0,.08-.08.08,0,0Z" transform="translate(-134.06 -90.44)"/><path class="cls-1" d="M433.63,214.29a128,128,0,0,0-7.34-37.53,122.87,122.87,0,0,0-22.77-38.48,150.5,150.5,0,0,0-34.6-29.64q-2-1.24-4.07-2.4a8.69,8.69,0,0,0-3.62-2l-.26-.08c-2.61-1.35-5.27-2.59-8-3.75-.08-.06-.16-.14-.25-.2a6.48,6.48,0,0,0-2.83-1.07,120.22,120.22,0,0,0-17.44-5.43,148.85,148.85,0,0,0-15.67-2.88,34.37,34.37,0,0,0-6-.37c-1.59.08-3.34.31-4.51,1.53a3.46,3.46,0,0,0-.87,2.39s0,0,0,.08V264.14a2.69,2.69,0,0,0,.17.92,2.53,2.53,0,0,0,.06.61,2.77,2.77,0,0,0-.11.64v4a2.63,2.63,0,0,0,.5,1.48,3,3,0,0,0,.34.45l3.52,3.41a2.56,2.56,0,0,0,.85.54,2.33,2.33,0,0,0,1.55.54h20.08a2.29,2.29,0,0,0,2-1.08,2.59,2.59,0,0,0,.62-1.08l.06-.09a2.33,2.33,0,0,0,.58-1.6q.12-28.5.14-57,0-17.73,0-35.48a36.26,36.26,0,0,1,4.15,2.9,40.31,40.31,0,0,1,7.85,8.23,42.27,42.27,0,0,1,3.11,5.22c.57,1.11,1.1,2.24,1.61,3.37a14.72,14.72,0,0,1,.87,2.23,53.55,53.55,0,0,1,2,11.45c.4,4.32.59,8.68.59,13a2.77,2.77,0,0,0,0,.3q-.42,45.24-.18,90.48.06,10.91.17,21.84a2.5,2.5,0,0,0-.09.61v7.23a2.5,2.5,0,0,0,2.5,2.5,2.4,2.4,0,0,0,.28,0,2.56,2.56,0,0,0,.78.14h14.65a2.64,2.64,0,0,0,1-.2,2.32,2.32,0,0,0,1.24,0h.89l.24,0a2,2,0,0,0,.34,0,2.71,2.71,0,0,0,1.77-.73l5-4.9a2.6,2.6,0,0,0,.69-1.37,2.45,2.45,0,0,0,.31-1.22V219.82a2.29,2.29,0,0,0-.59-1.61c-.49-9.12-1.85-18.24-5-26.79a82.28,82.28,0,0,0-21.76-31.86c-6.55-6-14.27-11.49-22.6-14.81q0-8.62-.11-17.25a101.54,101.54,0,0,1,27.95,14,72.91,72.91,0,0,1,6.45,5c.41.38.83.76,1.26,1.12a73.31,73.31,0,0,1,5.56,5.59,112,112,0,0,1,10.36,14.33,144.81,144.81,0,0,1,8.54,15.61A57.57,57.57,0,0,1,399.71,197c2.08,11.29,2.47,22.85,2.48,34.27s-.11,22.89-.14,34.34q0,26.1.05,52.18,0,14.76.14,29.52a2,2,0,0,0,0,.35,2.41,2.41,0,0,0,1.86,2.75,2.47,2.47,0,0,0,.89.17,1.86,1.86,0,0,0,.42-.05,1.93,1.93,0,0,0,.42.05h24.44a2.67,2.67,0,0,0,1-.19,2.26,2.26,0,0,0,2-1.14,2.32,2.32,0,0,0,.5-1.51V215.07A2.71,2.71,0,0,0,433.63,214.29Zm-108.54-58c0-.19,0-.39-.06-.58l.2.51Zm-14.67,19.61h0Zm3,88.27a2.09,2.09,0,0,0,.08.23l-.27,0s0-.06,0-.09Zm104.5,25.75,0-.31,0,0Zm5-29.88v-3.65c.09,1.19.18,2.38.26,3.58ZM346.77,106.26c-.13-.15-.25-.31-.37-.46.24.11.48.24.71.37A1.89,1.89,0,0,0,346.77,106.26Zm18,221.78v.6h-.07C364.77,328.43,364.79,328.24,364.81,328Zm59,12a.28.28,0,0,1,0,.09C424,340.47,423.64,340.33,423.79,340Zm2.27-20.18a2.53,2.53,0,0,0-.12-.23l.12-.23Zm-7.73-138.08v-.08l.11.3v0C418.41,182,418.37,181.86,418.33,181.77Zm-59.56,21.59c-.09-.39-.18-.77-.28-1.15.12.38.24.77.35,1.15Zm-23-44.76,0,0v-.1Zm47.56-29.75-.29-.39c.19.2.39.39.57.59ZM363.72,343.68c.16.15,0,.15,0,0Zm16.82-84h0c0-.11,0-.21,0-.32l0,0Z" transform="translate(-134.06 -90.44)"/><path class="cls-2" d="M142.09,431.57" transform="translate(-134.06 -90.44)"/><text x="-134.06" y="-90.44"/><path class="cls-1" d="M193.58,369.69a13.42,13.42,0,0,1,5.23,5.6,18,18,0,0,1,1.85,8.29,16.66,16.66,0,0,1-1.92,8.12,13.53,13.53,0,0,1-5.4,5.44,16,16,0,0,1-8,1.94h-9.58c-.22,0-.33.12-.33.37v18.64a.88.88,0,0,1-.24.62.76.76,0,0,1-.57.26h-7.89a.77.77,0,0,1-.58-.26.91.91,0,0,1-.23-.62V368.6a.9.9,0,0,1,.23-.62.77.77,0,0,1,.58-.26h19A15.27,15.27,0,0,1,193.58,369.69Zm-4.25,19.19a7,7,0,0,0,1.89-5.08,7.2,7.2,0,0,0-1.89-5.19,6.6,6.6,0,0,0-5-2h-8.57q-.33,0-.33.36v13.46q0,.36.33.36h8.57A6.62,6.62,0,0,0,189.33,388.88Z" transform="translate(-134.06 -90.44)"/><path class="cls-1" d="M212,418.71a.88.88,0,0,1-.24-.62V368.67a.88.88,0,0,1,.24-.62.73.73,0,0,1,.57-.26h7.89a.76.76,0,0,1,.57.26.88.88,0,0,1,.24.62v49.42a.88.88,0,0,1-.24.62.76.76,0,0,1-.57.26H212.6A.73.73,0,0,1,212,418.71Z" transform="translate(-134.06 -90.44)"/><path class="cls-1" d="M235,418.71a.87.87,0,0,1-.23-.62V368.67a.87.87,0,0,1,.23-.62.77.77,0,0,1,.58-.26h7.89a.76.76,0,0,1,.57.26.88.88,0,0,1,.24.62v41.09q0,.36.33.36h22.06a.76.76,0,0,1,.57.26.88.88,0,0,1,.24.62v7.09a.88.88,0,0,1-.24.62.76.76,0,0,1-.57.26H235.6A.77.77,0,0,1,235,418.71Z" transform="translate(-134.06 -90.44)"/><path class="cls-1" d="M285.5,417.29a15.73,15.73,0,0,1-6.17-6.33,19.44,19.44,0,0,1-2.19-9.39V385.19a19.71,19.71,0,0,1,2.19-9.43,15.46,15.46,0,0,1,6.17-6.32,19.94,19.94,0,0,1,18.25,0,15.92,15.92,0,0,1,6.14,6,16.34,16.34,0,0,1,2.19,8.37v.51a.86.86,0,0,1-.24.62.76.76,0,0,1-.57.26h-7.89a.77.77,0,0,1-.58-.26.9.9,0,0,1-.23-.62V384a8,8,0,0,0-2.16-5.66,8.22,8.22,0,0,0-11.57.14,9.26,9.26,0,0,0-2.19,6.4v17a8.87,8.87,0,0,0,2.36,6.4,8,8,0,0,0,6,2.45,7.73,7.73,0,0,0,5.6-2,7.42,7.42,0,0,0,2.09-5.6v-3.29q0-.36-.33-.36h-7.56a.76.76,0,0,1-.57-.26.88.88,0,0,1-.24-.62v-6.72a.88.88,0,0,1,.24-.63.75.75,0,0,1,.57-.25h16.46a.75.75,0,0,1,.57.25.88.88,0,0,1,.24.63v9.64a20.36,20.36,0,0,1-2.16,9.65,14.78,14.78,0,0,1-6.1,6.25,18.74,18.74,0,0,1-9.14,2.16A18.24,18.24,0,0,1,285.5,417.29Z" transform="translate(-134.06 -90.44)"/><path class="cls-1" d="M349.58,418.31l-8.43-20.25a.44.44,0,0,0-.41-.29h-6.27c-.23,0-.34.12-.34.36v20a.91.91,0,0,1-.23.62.77.77,0,0,1-.58.26h-7.89a.75.75,0,0,1-.57-.26.88.88,0,0,1-.24-.62V368.67a.88.88,0,0,1,.24-.62.75.75,0,0,1,.57-.26h19.29a14.9,14.9,0,0,1,7.59,1.9,12.91,12.91,0,0,1,5.06,5.41,17.69,17.69,0,0,1,1.78,8.12,15.31,15.31,0,0,1-2.29,8.51,12.24,12.24,0,0,1-6.41,5,.36.36,0,0,0-.2.51l9.17,20.69a1.3,1.3,0,0,1,.14.44c0,.39-.25.59-.74.59h-8.3A1,1,0,0,1,349.58,418.31ZM334.13,377v12.51c0,.24.11.36.34.36h8.83a6.17,6.17,0,0,0,4.62-1.83,6.5,6.5,0,0,0,1.79-4.75,6.66,6.66,0,0,0-1.79-4.79,6.12,6.12,0,0,0-4.62-1.86h-8.83C334.24,376.64,334.13,376.76,334.13,377Z" transform="translate(-134.06 -90.44)"/><path class="cls-1" d="M371.53,418.71a.88.88,0,0,1-.24-.62V368.67a.88.88,0,0,1,.24-.62.76.76,0,0,1,.57-.26H380a.77.77,0,0,1,.58.26.91.91,0,0,1,.23.62v49.42a.91.91,0,0,1-.23.62.77.77,0,0,1-.58.26H372.1A.76.76,0,0,1,371.53,418.71Z" transform="translate(-134.06 -90.44)"/><path class="cls-1" d="M425.58,367.79h7.9a.76.76,0,0,1,.57.26.88.88,0,0,1,.24.62v49.42a.88.88,0,0,1-.24.62.76.76,0,0,1-.57.26h-7.9a.76.76,0,0,1-.57-.26.87.87,0,0,1-.23-.62V385.85c0-.19,0-.29-.14-.29s-.18.07-.27.22l-7.15,12.13a1,1,0,0,1-.94.59h-4a1.06,1.06,0,0,1-.95-.59l-7.14-12.13c-.1-.15-.18-.21-.27-.19s-.14.14-.14.33v32.17a.88.88,0,0,1-.24.62.73.73,0,0,1-.57.26H395.1a.75.75,0,0,1-.57-.26.88.88,0,0,1-.24-.62V368.67a.88.88,0,0,1,.24-.62.75.75,0,0,1,.57-.26H403a1.06,1.06,0,0,1,.95.59l10.11,17c.14.29.27.29.41,0l10.18-17A1.05,1.05,0,0,1,425.58,367.79Z" transform="translate(-134.06 -90.44)"/></svg>