<svg width="60" height="60" viewBox="0 0 60 60" fill="none" xmlns="http://www.w3.org/2000/svg">
<rect width="60" height="60" rx="30" fill="#8A6F3D" fill-opacity="0.6"/>
<path d="M32.5824 22.6641H32.934V24.7441H32.768C31.9802 24.7441 31.2868 24.8646 30.6879 25.1055C30.0954 25.3464 29.6007 25.6849 29.2035 26.1211C28.8129 26.5508 28.5167 27.0618 28.3148 27.6543C28.113 28.2402 28.0121 28.8815 28.0121 29.5781V31.8828C28.0121 32.4232 28.0674 32.8984 28.1781 33.3086C28.2953 33.7122 28.4548 34.054 28.6566 34.334C28.865 34.6074 29.1059 34.8125 29.3793 34.9492C29.6592 35.0859 29.9652 35.1543 30.2973 35.1543C30.6293 35.1543 30.9288 35.0859 31.1957 34.9492C31.4626 34.8125 31.6905 34.6204 31.8793 34.373C32.0746 34.1191 32.2211 33.8229 32.3187 33.4844C32.4229 33.1458 32.475 32.7747 32.475 32.3711C32.475 31.974 32.4262 31.6061 32.3285 31.2676C32.2309 30.929 32.0876 30.6328 31.8988 30.3789C31.71 30.1185 31.4757 29.9199 31.1957 29.7832C30.9223 29.64 30.6098 29.5684 30.2582 29.5684C29.8025 29.5684 29.3956 29.6758 29.0375 29.8906C28.6794 30.099 28.3962 30.3724 28.1879 30.7109C27.9796 31.0495 27.8656 31.4076 27.8461 31.7852L26.977 31.3555C27.0095 30.8021 27.1267 30.2943 27.3285 29.832C27.5368 29.3698 27.8135 28.9661 28.1586 28.6211C28.5102 28.276 28.9236 28.0091 29.3988 27.8203C29.8806 27.6315 30.4145 27.5371 31.0004 27.5371C31.6775 27.5371 32.2699 27.6673 32.7777 27.9277C33.2855 28.1816 33.7055 28.5299 34.0375 28.9727C34.376 29.4154 34.6299 29.9264 34.7992 30.5059C34.9685 31.0788 35.0531 31.6842 35.0531 32.3223C35.0531 33.0059 34.9424 33.6439 34.7211 34.2363C34.5062 34.8288 34.1937 35.3464 33.7836 35.7891C33.3734 36.2318 32.8786 36.5768 32.2992 36.8242C31.7198 37.0716 31.0687 37.1953 30.3461 37.1953C29.5844 37.1953 28.9008 37.0521 28.2953 36.7656C27.6964 36.4792 27.182 36.082 26.7523 35.5742C26.3227 35.0664 25.9939 34.474 25.766 33.7969C25.5382 33.1198 25.4242 32.3874 25.4242 31.5996V30.5645C25.4242 29.4512 25.5772 28.416 25.8832 27.459C26.1892 26.502 26.6417 25.6654 27.2406 24.9492C27.8461 24.2266 28.5948 23.6667 29.4867 23.2695C30.3786 22.8659 31.4105 22.6641 32.5824 22.6641Z" fill="black"/>
</svg>
