<!-- icon666.com - MILLIONS vector ICONS FREE --><svg version="1.1" id="Capa_1" xmlns="http://www.w3.org/2000/svg" xmlns:xlink="http://www.w3.org/1999/xlink" x="0px" y="0px" viewBox="0 0 398.726 398.726" style="enable-background:new 0 0 398.726 398.726;" xml:space="preserve"><g><g><path d="M391.883,322.96l-44.44-0.68c54.52-112.96,45.08-196.52,5.56-250.28c-35.28-48-94.36-72-153.4-72 c-59.04,0-118.12,24-153.4,72c-39.68,53.76-49.12,137.28,5.24,250.28L6.843,323c-3.696,0.066-6.645,3.104-6.6,6.8l0.96,62.32 c0.063,3.711,3.122,6.668,6.833,6.605c0.056-0.001,0.111-0.003,0.167-0.005h0l104.8-1.68c20.93,0.727,38.487-15.65,39.214-36.58 c0.247-7.124-1.518-14.173-5.094-20.34c-55-95.28-56-163.56-32.64-205.28c27.046-46.933,87.017-63.055,133.95-36.01 c14.964,8.623,27.386,21.045,36.01,36.01c23.24,41.68,22.36,109.84-32.44,204.92l-0.2,0.32 c-10.53,18.078-4.411,41.268,13.667,51.798c6.196,3.609,13.288,5.385,20.453,5.122l104.8,1.68c3.696,0.045,6.734-2.904,6.8-6.6 l0.96-62.32C398.527,326.064,395.579,323.026,391.883,322.96z M384.003,385.04l-98.32-1.6h-0.36 c-13.516,0.34-24.748-10.341-25.088-23.857c-0.112-4.461,0.997-8.867,3.208-12.743l0.2-0.4c57.6-100,57.8-172.8,32.52-218.12 c-30.635-53.406-98.764-71.865-152.17-41.23c-17.158,9.842-31.388,24.072-41.23,41.23c-25.32,45.4-25.08,118.4,32.68,218.52 c6.792,11.69,2.822,26.673-8.868,33.465c-4.015,2.333-8.612,3.476-13.252,3.295h-0.56l-98.12,1.56l-0.76-48.92l48.56-0.88 c3.711-0.073,6.659-3.141,6.586-6.851c-0.02-0.997-0.261-1.977-0.706-2.869c-56.88-112.36-49.28-194.28-11.44-245.72 c32.56-44.28,87.52-66.44,142.56-66.44c55.04,0,110,22.16,142.56,66.44c37.84,51.44,45.44,133.36-11.48,245.84 c-1.592,3.353-0.164,7.361,3.188,8.953c0.952,0.452,1.998,0.674,3.052,0.647l48,0.76L384.003,385.04z" fill="#000000" style="fill: rgb(255, 255, 255);"></path></g></g><g><g><circle cx="62.563" cy="220.36" r="10.24" fill="#000000" style="fill: rgb(255, 255, 255);"></circle></g></g><g><g><circle cx="336.323" cy="220.36" r="10.24" fill="#000000" style="fill: rgb(255, 255, 255);"></circle></g></g><g><g><circle cx="62.563" cy="155.28" r="10.24" fill="#000000" style="fill: rgb(255, 255, 255);"></circle></g></g><g><g><circle cx="89.483" cy="93.6" r="10.24" fill="#000000" style="fill: rgb(255, 255, 255);"></circle></g></g><g><g><circle cx="199.443" cy="40.84" r="10.24" fill="#000000" style="fill: rgb(255, 255, 255);"></circle></g></g><g><g><circle cx="137.723" cy="53.2" r="10.24" fill="#000000" style="fill: rgb(255, 255, 255);"></circle></g></g><g><g><circle cx="80.163" cy="280.76" r="10.24" fill="#000000" style="fill: rgb(255, 255, 255);"></circle></g></g><g><g><circle cx="261.163" cy="53.2" r="10.24" fill="#000000" style="fill: rgb(255, 255, 255);"></circle></g></g><g><g><circle cx="336.323" cy="155.28" r="10.24" fill="#000000" style="fill: rgb(255, 255, 255);"></circle></g></g><g><g><circle cx="318.723" cy="280.76" r="10.24" fill="#000000" style="fill: rgb(255, 255, 255);"></circle></g></g><g><g><circle cx="309.403" cy="93.6" r="10.24" fill="#000000" style="fill: rgb(255, 255, 255);"></circle></g></g></svg>