<svg id="Слой_2" data-name="Слой 2" xmlns="http://www.w3.org/2000/svg" viewBox="0 0 268.63 329.14"><defs><style>.cls-1,.cls-2{fill:#f1f0ee;}.cls-2{stroke:#fff;stroke-miterlimit:10;stroke-width:8px;}</style></defs><path class="cls-1" d="M148.31.12a102.83,102.83,0,0,0-15,2.44,117.06,117.06,0,0,0-20.54,6.35,6,6,0,0,0-.92.25,4.23,4.23,0,0,0-1.11.59Q106.26,11.68,102,14a10.56,10.56,0,0,0-2.87,1.57l-.34.19A144.62,144.62,0,0,0,64.26,44.19,126.51,126.51,0,0,0,40.74,81.56a128.64,128.64,0,0,0-9,42.33,2.63,2.63,0,0,0-.14.83V257.38a2.31,2.31,0,0,0,.79,1.81,2.21,2.21,0,0,0,1.49.76,2.37,2.37,0,0,0,1.14.27H59.55a2.7,2.7,0,0,0,1.09-.23,2.4,2.4,0,0,0,1.7-2.43,2.88,2.88,0,0,0,.06-.59q.18-26.1.19-52.2t-.07-52.1q0-9-.1-18a219.39,219.39,0,0,1,1.71-23.76A77.07,77.07,0,0,1,67.49,96a97.55,97.55,0,0,1,7-14.3C80.21,71.52,86.81,61.9,95.85,54.4a96.54,96.54,0,0,1,29.47-16.68c.56-.2,1.13-.38,1.7-.57q-.08,8.6-.11,17.18c-6.87,2.76-13.1,7.36-18.7,12A82.5,82.5,0,0,0,84.94,98.11c-3.9,9.45-5.44,19.66-6,29.83a2.29,2.29,0,0,0-.52,1.53V251.09a2.6,2.6,0,0,0,.26,1.13,2.64,2.64,0,0,0,.69,1.42l4.9,4.9a2.61,2.61,0,0,0,1.77.73h.15a2.3,2.3,0,0,0,.45.05h.82a2.57,2.57,0,0,0,1.17,0,2.49,2.49,0,0,0,1,.21h14.21a2.28,2.28,0,0,0,.73-.12h.3a2.5,2.5,0,0,0,2.5-2.5v-7.22a2.23,2.23,0,0,0-.09-.63q.41-43.86.17-87.69-.06-12.75-.18-25.5c0-7.46.28-15.22,2.14-22.46a39.51,39.51,0,0,1,4.92-10.85,40.5,40.5,0,0,1,12.41-12.45v3.15q-.06,28.53,0,57.08,0,16.08.1,32.18a2.33,2.33,0,0,0,.58,1.59v.08a2.55,2.55,0,0,0,.69,1.13,2.28,2.28,0,0,0,2,1H149.6a2.39,2.39,0,0,0,1.52-.51,2.51,2.51,0,0,0,.78-.51v-.05l3.41-3.37a3.57,3.57,0,0,0,.88-2v-4a2.31,2.31,0,0,0-.1-.64,2.24,2.24,0,0,0,0-.63,2.41,2.41,0,0,0,.16-.88V4.64C157.1.06,151.5-.1,148.31.12ZM42.18,169.62h-.13c0-.63.09-1.26.13-1.89Zm95-103.79Zm11.45,108.06V174h-.14l.07-.19h.07ZM116,15.89l-.28-.06.57-.3ZM83.43,169.2v.15h0Zm16.14,84.19C99.57,253.47,99.49,253.47,99.57,253.39Z" transform="translate(-31.6 -0.01)"/><path class="cls-1" d="M299.57,123.85a127.92,127.92,0,0,0-7.34-37.53,122.87,122.87,0,0,0-22.77-38.48,150.5,150.5,0,0,0-34.6-29.64q-2-1.24-4.07-2.4a8.73,8.73,0,0,0-3.62-2l-.26-.08c-2.61-1.35-5.27-2.59-8-3.75-.08-.06-.16-.14-.25-.2a6.61,6.61,0,0,0-2.83-1.07,121,121,0,0,0-17.44-5.43A148.85,148.85,0,0,0,182.72.39a34.43,34.43,0,0,0-6-.37c-1.59.08-3.34.31-4.51,1.53a3.49,3.49,0,0,0-.87,2.39V173.7a2.63,2.63,0,0,0,.17.92,3.08,3.08,0,0,0,.06.61,2.77,2.77,0,0,0-.11.64v4a2.63,2.63,0,0,0,.5,1.48,3,3,0,0,0,.34.45l3.52,3.41a2.52,2.52,0,0,0,.85.54,2.34,2.34,0,0,0,1.55.54H198.3a2.29,2.29,0,0,0,2-1.08,2.59,2.59,0,0,0,.62-1.08L201,184a2.29,2.29,0,0,0,.58-1.6q.12-28.5.14-57V90a36.26,36.26,0,0,1,4.15,2.9,40.31,40.31,0,0,1,7.85,8.23,42.27,42.27,0,0,1,3.11,5.22c.57,1.11,1.1,2.24,1.61,3.37a14.72,14.72,0,0,1,.87,2.23,53.55,53.55,0,0,1,2,11.45c.4,4.32.59,8.68.59,13a1.5,1.5,0,0,0,0,.3q-.42,45.24-.18,90.48.06,10.91.17,21.84a2.1,2.1,0,0,0-.09.61v7.23a2.5,2.5,0,0,0,2.5,2.5h.28a2.56,2.56,0,0,0,.78.14H240a2.66,2.66,0,0,0,1-.2,2.37,2.37,0,0,0,1.24,0h1.47a2.71,2.71,0,0,0,1.77-.73l5-4.9a2.64,2.64,0,0,0,.69-1.37,2.46,2.46,0,0,0,.31-1.22V129.38a2.28,2.28,0,0,0-.59-1.61c-.49-9.12-1.85-18.24-5-26.79a82.35,82.35,0,0,0-21.76-31.86c-6.55-6-14.27-11.49-22.6-14.81q0-8.62-.11-17.25a101.77,101.77,0,0,1,28,14,70.76,70.76,0,0,1,6.45,5c.41.38.83.76,1.26,1.12a73.31,73.31,0,0,1,5.56,5.59A112,112,0,0,1,253,77.1a144.81,144.81,0,0,1,8.54,15.61,57.8,57.8,0,0,1,4.12,13.85c2.08,11.29,2.47,22.85,2.48,34.27s-.11,22.89-.14,34.34q0,26.1.05,52.18,0,14.76.14,29.52a2,2,0,0,0,0,.35A2.41,2.41,0,0,0,270,260a2.47,2.47,0,0,0,.89.17,1.79,1.79,0,0,1,.84,0h24.44a2.65,2.65,0,0,0,1-.19,2.27,2.27,0,0,0,2-1.14,2.29,2.29,0,0,0,.5-1.51V124.63A2.9,2.9,0,0,0,299.57,123.85ZM191,65.85a1.91,1.91,0,0,0-.06-.58l.2.51ZM176.36,85.46Zm3,88.27a2.09,2.09,0,0,0,.08.23h-.27v-.09Zm104.5,25.75v-.31h0Zm5-29.88V166c.09,1.19.18,2.38.26,3.58ZM212.71,15.82c-.13-.15-.25-.31-.37-.46.24.11.48.24.71.37A1.89,1.89,0,0,0,212.71,15.82Zm18,221.78v.6h-.07a2.59,2.59,0,0,0,.11-.64Zm59,12v.09c.23.34-.13.2,0-.13ZM292,229.42l-.12-.23L292,229ZM284.25,91.34v-.08l.11.3h0s-.05-.14-.09-.23Zm-59.56,21.59c-.09-.39-.18-.77-.28-1.15.12.38.24.77.35,1.15Zm-23-44.76h0v0Zm47.56-29.75L249,38c.19.2.39.39.57.59ZM229.66,253.24C229.82,253.39,229.66,253.39,229.66,253.24Zm16.82-84h0v-.32h0Z" transform="translate(-31.6 -0.01)"/><path class="cls-2" d="M8,341.13" transform="translate(-31.6 -0.01)"/><path class="cls-1" d="M59.52,279.25a13.39,13.39,0,0,1,5.23,5.6,18,18,0,0,1,1.85,8.29,16.62,16.62,0,0,1-1.92,8.12,13.47,13.47,0,0,1-5.4,5.44,16.05,16.05,0,0,1-8,1.94H41.7c-.22,0-.33.12-.33.37v18.64a.89.89,0,0,1-.24.62.77.77,0,0,1-.57.26H32.67a.77.77,0,0,1-.58-.26.93.93,0,0,1-.23-.62V278.16a.93.93,0,0,1,.23-.62.77.77,0,0,1,.58-.26h19A15.28,15.28,0,0,1,59.52,279.25Zm-4.25,19.19a7,7,0,0,0,1.89-5.08,7.2,7.2,0,0,0-1.89-5.19,6.6,6.6,0,0,0-5-2H41.7q-.33,0-.33.36V300q0,.36.33.36h8.57A6.61,6.61,0,0,0,55.27,298.44Z" transform="translate(-31.6 -0.01)"/><path class="cls-1" d="M77.94,328.27a.89.89,0,0,1-.24-.62V278.23a.89.89,0,0,1,.24-.62.73.73,0,0,1,.57-.26H86.4a.77.77,0,0,1,.57.26.89.89,0,0,1,.24.62v49.42a.89.89,0,0,1-.24.62.77.77,0,0,1-.57.26H78.54A.73.73,0,0,1,77.94,328.27Z" transform="translate(-31.6 -0.01)"/><path class="cls-1" d="M100.94,328.27a.84.84,0,0,1-.23-.62V278.23a.84.84,0,0,1,.23-.62.77.77,0,0,1,.58-.26h7.89a.77.77,0,0,1,.57.26.89.89,0,0,1,.24.62v41.09q0,.36.33.36h22.06a.77.77,0,0,1,.57.26.89.89,0,0,1,.24.62v7.09a.89.89,0,0,1-.24.62.77.77,0,0,1-.57.26H101.54A.76.76,0,0,1,100.94,328.27Z" transform="translate(-31.6 -0.01)"/><path class="cls-1" d="M151.44,326.85a15.73,15.73,0,0,1-6.17-6.33,19.43,19.43,0,0,1-2.19-9.39V294.75a19.67,19.67,0,0,1,2.19-9.43,15.45,15.45,0,0,1,6.17-6.32,19.92,19.92,0,0,1,18.25,0,15.94,15.94,0,0,1,6.14,6,16.27,16.27,0,0,1,2.19,8.37v.51a.85.85,0,0,1-.24.62.77.77,0,0,1-.57.26h-7.89a.77.77,0,0,1-.58-.26.93.93,0,0,1-.23-.62v-.32a8,8,0,0,0-2.16-5.66,8.22,8.22,0,0,0-11.57.14,9.28,9.28,0,0,0-2.19,6.4v17a8.85,8.85,0,0,0,2.36,6.4,8,8,0,0,0,6,2.45,7.71,7.71,0,0,0,5.6-2,7.42,7.42,0,0,0,2.09-5.6V309.4q0-.36-.33-.36h-7.56a.77.77,0,0,1-.57-.26.89.89,0,0,1-.24-.62v-6.72a.87.87,0,0,1,.24-.63.76.76,0,0,1,.57-.25h16.46a.76.76,0,0,1,.57.25.87.87,0,0,1,.24.63v9.64a20.42,20.42,0,0,1-2.16,9.65,14.77,14.77,0,0,1-6.1,6.25,18.75,18.75,0,0,1-9.14,2.16A18.19,18.19,0,0,1,151.44,326.85Z" transform="translate(-31.6 -0.01)"/><path class="cls-1" d="M215.52,327.87l-8.43-20.25a.44.44,0,0,0-.41-.29h-6.27c-.23,0-.34.12-.34.36v20a.93.93,0,0,1-.23.62.77.77,0,0,1-.58.26h-7.89a.73.73,0,0,1-.57-.26.89.89,0,0,1-.24-.62V278.23a.89.89,0,0,1,.24-.62.73.73,0,0,1,.57-.26h19.29a14.94,14.94,0,0,1,7.59,1.9,12.88,12.88,0,0,1,5.06,5.41,17.7,17.7,0,0,1,1.78,8.12,15.29,15.29,0,0,1-2.29,8.51,12.24,12.24,0,0,1-6.41,5,.35.35,0,0,0-.22.46s0,0,0,.05l9.17,20.69a1.41,1.41,0,0,1,.14.44c0,.39-.25.59-.74.59h-8.3A1,1,0,0,1,215.52,327.87Zm-15.45-41.31v12.51c0,.24.11.36.34.36h8.83a6.19,6.19,0,0,0,4.62-1.83,6.5,6.5,0,0,0,1.79-4.75,6.67,6.67,0,0,0-1.79-4.79,6.13,6.13,0,0,0-4.62-1.86h-8.83C200.18,286.2,200.07,286.32,200.07,286.56Z" transform="translate(-31.6 -0.01)"/><path class="cls-1" d="M237.47,328.27a.89.89,0,0,1-.24-.62V278.23a.89.89,0,0,1,.24-.62.77.77,0,0,1,.57-.26h7.9a.77.77,0,0,1,.58.26.93.93,0,0,1,.23.62v49.42a.93.93,0,0,1-.23.62.77.77,0,0,1-.58.26H238A.77.77,0,0,1,237.47,328.27Z" transform="translate(-31.6 -0.01)"/><path class="cls-1" d="M291.52,277.35h7.9a.77.77,0,0,1,.57.26.89.89,0,0,1,.24.62v49.42a.89.89,0,0,1-.24.62.77.77,0,0,1-.57.26h-7.9a.77.77,0,0,1-.57-.26.84.84,0,0,1-.23-.62V295.41c0-.19,0-.29-.14-.29s-.18.07-.27.22l-7.15,12.13a1,1,0,0,1-.94.59h-4a1.07,1.07,0,0,1-1-.59l-7.14-12.13c-.1-.15-.18-.21-.27-.19s-.14.14-.14.33v32.17a.89.89,0,0,1-.24.62.73.73,0,0,1-.57.26H261a.73.73,0,0,1-.57-.26.89.89,0,0,1-.24-.62V278.23a.89.89,0,0,1,.24-.62.73.73,0,0,1,.57-.26h7.9a1.07,1.07,0,0,1,.95.59l10.11,17c.14.29.27.29.41,0l10.18-17A1,1,0,0,1,291.52,277.35Z" transform="translate(-31.6 -0.01)"/></svg>